{"title":"Colony 2013 DVDrip Xvid Ac3-MiLLENiUM","uid":8751575,"size":1493747921,"categoryP":"video","categoryS":"movies","magnet":"?xt=urn:btih:0547819d006dfd9f8130fc49bed00c0cd5953b05&amp;dn=Colony+2013+DVDrip+Xvid+Ac3-MiLLENiUM&amp;tr=udp%3A%2F%2Ftracker.openbittorrent.com%3A80&amp;tr=udp%3A%2F%2Fopen.demonii.com%3A1337&amp;tr=udp%3A%2F%2Ftracker.coppersurfer.tk%3A6969&amp;tr=udp%3A%2F%2Fexodus.desync.com%3A6969","seeders":1,"leechers":0,"uploader":"R0thschild","files":4,"time":1375044511,"description":"              ***********************************************\n\n                PublicHash - Largest Bittorrent Community\n      \n                         &lt;a href=&quot; http://publichash.com/&quot; rel=&quot;nofollow&quot; target=&quot;_NEW&quot;&gt; http://publichash.com/&lt;/a&gt;\n\n          Crystal Clean files - Fast Speed! No Virus! No Fake! Enjoy!\n    \n              ***********************************************\nThe Colony (I) (2013)\n95 min  -  Action | Sci-Fi | Thriller  -  20 September 2013 (USA)\nIMDB rating: 5.6\n\nForced underground by the next ice age, a struggling outpost of survivors must fight to preserve humanity against a threat even more savage than nature.\n\nDirector: Jeff Renfroe\nWriters: Jeff Renfroe (screenplay), Svet Rouskov (additional writer)\n\nScreens: &lt;a href=&quot;\nhttp://imgsure.com/?p=288959&quot; rel=&quot;nofollow&quot; target=&quot;_NEW&quot;&gt;\nhttp://imgsure.com/?p=288959&lt;/a&gt; &lt;a href=&quot;\nhttp://imgsure.com/?p=425689&quot; rel=&quot;nofollow&quot; target=&quot;_NEW&quot;&gt;\nhttp://imgsure.com/?p=425689&lt;/a&gt;\n\nGeneral\n\nComplete name                            : Colony 2013 DVDrip Xvid Ac3-MiLLENiUM.avi\nsource                                   : DVDR [thanks]\nFormat                                   : AVI\nFormat/Info                              : Audio Video Interleave\nFile size                                : 1.38 GiB\nDuration                                 : 1h 34mn\nOverall bit rate                         : 2 090 Kbps\nWriting application                      : VirtualDubMod 1.5.10.2 (build 2540/release)\nWriting library                          : VirtualDubMod build 2540/release\n\nVideo\nID                                       : 0\nFormat                                   : MPEG-4 Visual\nFormat profile                           : Advanced Simple@L5\nFormat settings, BVOP                    : 2\nFormat settings, QPel                    : No\nFormat settings, GMC                     : No warppoints\nFormat settings, Matrix                  : Default (H.263)\nMuxing mode                              : Packed bitstream\nCodec ID                                 : XVID\nCodec ID/Hint                            : XviD\nDuration                                 : 1h 34mn\nBit rate                                 : 1 694 Kbps\nWidth                                    : 720 pixels\nHeight                                   : 384 pixels\nDisplay aspect ratio                     : 1.875\nFrame rate                               : 29.970 fps\nColor space                              : YUV\nChroma subsampling                       : 4:2:0\nBit depth                                : 8 bits\nScan type                                : Progressive\nCompression mode                         : Lossy\nBits/(Pixel*Frame)                       : 0.204\nStream size                              : 1.11 GiB (81%)\nWriting library                          : XviD 64\n\nAudio\nID                                       : 1\nFormat                                   : AC-3\nFormat/Info                              : Audio Coding 3\nMode extension                           : CM (complete main)\nCodec ID                                 : 2000\nDuration                                 : 1h 34mn\nBit rate mode                            : Constant\nBit rate                                 : 384 Kbps\nChannel(s)                               : 6 channels\nChannel positions                        : Front: L C R, Side: L R, LFE\nSampling rate                            : 48.0 KHz\nBit depth                                : 16 bits\nCompression mode                         : Lossy\nStream size                              : 259 MiB (18%)\nAlignment                                : Split accross interleaves\nInterleave, duration                     : 33 ms (1.00 video frame)\nInterleave, preload duration             : 500 ms\n\n\nIMDB: http://www.imdb.com/title/tt1160996/","torrent":{"xt":"urn:btih:0547819d006dfd9f8130fc49bed00c0cd5953b05","amp;dn":"Colony+2013+DVDrip+Xvid+Ac3-MiLLENiUM","amp;tr":["udp%3A%2F%2Ftracker.openbittorrent.com%3A80","udp%3A%2F%2Fopen.demonii.com%3A1337","udp%3A%2F%2Ftracker.coppersurfer.tk%3A6969","udp%3A%2F%2Fexodus.desync.com%3A6969"],"infoHash":"0547819d006dfd9f8130fc49bed00c0cd5953b05","infoHashBuffer":{"type":"Buffer","data":[5,71,129,157,0,109,253,159,129,48,252,73,190,208,12,12,213,149,59,5]},"announce":[],"urlList":[]}}